#!OML:ASF Y:\EmotionMaleHayes\Project 1\Capture day 1\Session 1\Male1.ASF
:FULLY-SPECIFIED
:DEGREES
174
root -29.2866 16.998 1.12353 16.4088 84.4299 16.5825
lowerback 1.91373 1.43461 -3.75719
upperback 1.89365 1.89083 -0.157333
thorax 0.756026 0.914932 1.91805
lowerneck -22.307 2.29523 3.13299
upperneck 20.5325 2.42755 -0.935076
head 10.3018 1.27557 -0.475359
rclavicle -4.11857e-015 3.77691e-015
rhumerus -30.86 14.521 -94.4866
rradius 28.5208
rwrist 5.38637
rhand -9.04922 -32.8638
rfingers 7.12502
rthumb 16.8991 -62.1486
lclavicle -4.11857e-015 3.77691e-015
lhumerus -27.2306 -9.07296 92.8407
lradius 20.2111
lwrist -17.7354
lhand -13.3409 -26.9003
lfingers 7.12502
lthumb 12.7645 2.68948
rfemur 8.66314 -1.30197 12.5865
rtibia 2.34371
rfoot -14.4193 1.56061
rtoes 9.04968
lfemur 13.9618 -0.981472 -14.6329
ltibia -2.44863
lfoot -14.6288 19.1181
ltoes -10.682
175
root -29.2867 16.9975 1.12369 16.8711 84.4743 17.0055
lowerback 1.8862 1.41742 -3.73501
upperback 1.7579 1.86406 -0.150287
thorax 0.63392 0.904818 1.91183
lowerneck -21.7747 2.2646 2.98117
upperneck 20.3957 2.44494 -0.882164
head 10.1528 1.28148 -0.433919
rclavicle 9.16273e-015 -1.2424e-015
rhumerus -31.1865 14.5085 -94.5041
rradius 28.5722
rwrist 5.39197
rhand -9.08805 -32.7451
rfingers 7.12502
rthumb 16.8617 -62.033
lclavicle 9.16273e-015 -1.2424e-015
lhumerus -27.5119 -8.93779 92.8985
lradius 20.2357
lwrist -17.8081
lhand -13.372 -27.0415
lfingers 7.12502
lthumb 12.7346 2.55015
rfemur 8.61031 -1.4821 12.4984
rtibia 2.37305
rfoot -14.3693 1.73747
rtoes 9.2889
lfemur 13.7755 -0.603912 -14.499
ltibia -2.19494
lfoot -14.4038 18.6875
ltoes -11.6135
176
root -29.287 16.9971 1.12446 15.5546 84.5756 15.6418
lowerback 1.81347 1.42247 -3.62035
upperback 1.88014 1.87919 -0.121362
thorax 0.801807 0.909352 1.88115
lowerneck -22.2241 2.2876 3.11224
upperneck 20.4671 2.43103 -0.954098
head 10.263 1.27319 -0.479138
rclavicle -9.39258e-015 8.79622e-015
rhumerus -30.9202 14.5277 -94.5025
rradius 28.6149
rwrist 5.1098
rhand -9.19145 -32.7391
rfingers 7.12502
rthumb 16.7621 -62.0355
lclavicle -9.39258e-015 8.79622e-015
lhumerus -27.2294 -9.0018 92.8302
lradius 20.2262
lwrist -17.8956
lhand -13.2039 -26.9425
lfingers 7.12502
lthumb 12.8967 2.63905
rfemur 8.59462 -1.43628 12.7215
rtibia 2.32285
rfoot -14.3822 1.64005
rtoes 9.4463
lfemur 13.7616 -1.00196 -14.4518
ltibia -2.26957
lfoot -14.4685 18.9552
ltoes -11.5037
177
root -29.2863 16.9975 1.12506 15.5041 84.6144 15.5738
lowerback 1.76621 1.40859 -3.6021
upperback 1.91949 1.86432 -0.127727
thorax 0.870337 0.900645 1.86658
lowerneck -22.3548 2.29179 3.15568
upperneck 20.5001 2.42388 -0.983175
head 10.2996 1.26889 -0.496548
rclavicle 3.50358e-015 5.46658e-015
rhumerus -30.8253 14.5619 -94.5398
rradius 28.6075
rwrist 4.96065
rhand -9.21923 -32.689
rfingers 7.12502
rthumb 16.7354 -61.9876
lclavicle 3.50358e-015 5.46658e-015
lhumerus -27.1494 -9.09343 92.8155
lradius 20.2122
lwrist -17.859
lhand -12.8601 -26.6072
lfingers 7.12502
lthumb 13.228 2.95305
rfemur 8.61063 -1.45073 12.7473
rtibia 2.28525
rfoot -14.3813 1.47982
rtoes 9.00273
lfemur 13.8206 -1.38669 -14.5826
ltibia -2.39761
lfoot -14.7195 19.1951
ltoes -10.453
178
root -29.2863 16.9994 1.12667 15.6981 84.596 15.7562
lowerback 1.73323 1.41747 -3.62606
upperback 1.93729 1.87807 -0.137756
thorax 0.905947 0.90656 1.87069
lowerneck -22.4381 2.28336 3.18222
upperneck 20.5628 2.41097 -1.02344
head 10.3381 1.25999 -0.516367
rclavicle -9.42053e-015 8.84592e-015
rhumerus -30.8013 14.6352 -94.576
rradius 28.6031
rwrist 4.89285
rhand -9.31092 -32.642
rfingers 7.12502
rthumb 16.6471 -61.9481
lclavicle -9.42053e-015 8.84592e-015
lhumerus -27.096 -9.16676 92.8341
lradius 20.1678
lwrist -17.7938
lhand -12.7277 -26.3713
lfingers 7.12502
lthumb 13.3557 3.18069
rfemur 8.59162 -1.41935 12.7377
rtibia 2.29682
rfoot -14.4045 1.37188
rtoes 8.2706
lfemur 13.7156 -0.935305 -14.4196
ltibia -2.2104
lfoot -14.6292 18.8012
ltoes -10.5589
